# xmcd
#
# Track frame offsets:
#	150
#	7682
#	27917
#	52771
#	77556
#	105217
#	121966
#	148583
#	168923
#	185198
#	208666
#	230176
#	253668
#	271739
#	290393
#	310574
#
# Disc length: 4343 seconds
#
# Revision: 1
# Processed by: cddbd v1.5.1PL2 Copyright (c) Steve Scherf et al.
# Submitted via: EasyCDDAExtractor 9.0.0.1
#
DISCID=cb10f510
DTITLE=Ozzy Osbourne - Coliseum New Haven 03-04-82 Upgrade
DYEAR=1982
DGENRE=Hard Rock
TTITLE0=Intro
TTITLE1=Over The Mountain
TTITLE2=Mr Crowley
TTITLE3=Crazy Train
TTITLE4=Revelation (Mother Earth)
TTITLE5=Steal Away (The Night)
TTITLE6=Suicide Solution
TTITLE7=Guitar Solo
TTITLE8=Drum Solo
TTITLE9=Goodbye To Romance
TTITLE10=I Don't Know
TTITLE11=Believer
TTITLE12=Flying High Again
TTITLE13=Iron Man
TTITLE14=Children Of The Grave
TTITLE15=Paranoid
EXTD=
EXTT0=
EXTT1=
EXTT2=
EXTT3=
EXTT4=
EXTT5=
EXTT6=
EXTT7=
EXTT8=
EXTT9=
EXTT10=
EXTT11=
EXTT12=
EXTT13=
EXTT14=
EXTT15=
PLAYORDER=
